{
  "accessors": [
    {
      "bufferView": 2,
      "componentType": 5126,
      "count": 4909,
      "max": [
        0.46579688787460327,
        2.919623374938965,
        5.483326435089111
      ],
      "min": [
        -0.46579688787460327,
        -0.0006596135790459812,
        -5.326915264129639
      ],
      "type": "VEC3"
    },
    {
      "bufferView": 2,
      "byteOffset": 58908,
      "componentType": 5126,
      "count": 4909,
      "max": [
        0.9998753666877747,
        0.9999421238899231,
        0.9982476234436035
      ],
      "min": [
        -0.9998922944068909,
        -0.9999890923500061,
        -0.9999731779098511
      ],
      "type": "VEC3"
    },
    {
      "bufferView": 1,
      "componentType": 5126,
      "count": 4909,
      "max": [
        0.9914453625679016,
        0.9916682839393616
      ],
      "min": [
        0.0075272321701049805,
        0.009815525263547897
      ],
      "type": "VEC2"
    },
    {
      "bufferView": 0,
      "componentType": 5125,
      "count": 23268,
      "type": "SCALAR"
    },
    {
      "bufferView": 2,
      "byteOffset": 117816,
      "componentType": 5126,
      "count": 495,
      "max": [
        0.2892744839191437,
        2.3264877796173096,
        -4.560575008392334
      ],
      "min": [
        -0.2892744839191437,
        1.5925283432006836,
        -5.1419878005981445
      ],
      "type": "VEC3"
    },
    {
      "bufferView": 2,
      "byteOffset": 123756,
      "componentType": 5126,
      "count": 495,
      "max": [
        0.9796084761619568,
        0.5631301999092102,
        0.970801830291748
      ],
      "min": [
        -0.9784119725227356,
        -0.5399681329727173,
        -0.9802985787391663
      ],
      "type": "VEC3"
    },
    {
      "bufferView": 1,
      "byteOffset": 39272,
      "componentType": 5126,
      "count": 495,
      "max": [
        0.5413106083869934,
        0.5632222890853882
      ],
      "min": [
        0.3385429382324219,
        0.5454776287078857
      ],
      "type": "VEC2"
    },
    {
      "bufferView": 0,
      "byteOffset": 93072,
      "componentType": 5125,
      "count": 2136,
      "type": "SCALAR"
    }
  ],
  "asset": {
    "extras": {
      "author": "zack_graham (https://sketchfab.com/zack_graham)",
      "license": "CC-BY-4.0 (http://creativecommons.org/licenses/by/4.0/)",
      "source": "https://sketchfab.com/3d-models/basilisk-dd872aa392a949a09ebdd8dfb20608b7",
      "title": "Basilisk"
    },
    "generator": "Sketchfab-16.59.0",
    "version": "2.0"
  },
  "bufferViews": [
    {
      "buffer": 0,
      "byteLength": 101616,
      "name": "floatBufferViews",
      "target": 34963
    },
    {
      "buffer": 0,
      "byteLength": 43232,
      "byteOffset": 101616,
      "byteStride": 8,
      "name": "floatBufferViews",
      "target": 34962
    },
    {
      "buffer": 0,
      "byteLength": 129696,
      "byteOffset": 144848,
      "byteStride": 12,
      "name": "floatBufferViews",
      "target": 34962
    }
  ],
  "buffers": [
    {
      "byteLength": 274544,
      "uri": "scene.bin"
    }
  ],
  "extensionsUsed": [
    "KHR_materials_unlit"
  ],
  "images": [
    {
      "uri": "textures/target_basilisk_mat_baseColor.png"
    }
  ],
  "materials": [
    {
      "doubleSided": true,
      "extensions": {
        "KHR_materials_unlit": {}
      },
      "name": "target_basilisk_mat",
      "pbrMetallicRoughness": {
        "baseColorTexture": {
          "index": 0
        },
        "metallicFactor": 0.0
      }
    },
    {
      "doubleSided": true,
      "extensions": {
        "KHR_materials_unlit": {}
      },
      "name": "target_basilisk_mat_0",
      "pbrMetallicRoughness": {
        "baseColorTexture": {
          "index": 0
        },
        "metallicFactor": 0.0
      }
    }
  ],
  "meshes": [
    {
      "name": "target_basilisk_mesh_0_target_basilisk_mat_0",
      "primitives": [
        {
          "attributes": {
            "NORMAL": 1,
            "POSITION": 0,
            "TEXCOORD_0": 2
          },
          "indices": 3,
          "material": 0,
          "mode": 4
        }
      ]
    },
    {
      "name": "target_basiliskdbl_mesh_0_target_basilisk_mat_0",
      "primitives": [
        {
          "attributes": {
            "NORMAL": 5,
            "POSITION": 4,
            "TEXCOORD_0": 6
          },
          "indices": 7,
          "material": 1,
          "mode": 4
        }
      ]
    }
  ],
  "nodes": [
    {
      "children": [
        1
      ],
      "matrix": [
        1.0,
        0.0,
        0.0,
        0.0,
        0.0,
        2.220446049250313e-16,
        -1.0,
        0.0,
        0.0,
        1.0,
        2.220446049250313e-16,
        0.0,
        0.0,
        0.0,
        0.0,
        1.0
      ],
      "name": "Sketchfab_model"
    },
    {
      "children": [
        2
      ],
      "matrix": [
        0.009999999776482582,
        0.0,
        0.0,
        0.0,
        0.0,
        0.0,
        0.009999999776482582,
        0.0,
        0.0,
        -0.009999999776482582,
        0.0,
        0.0,
        0.0,
        0.0,
        0.0,
        1.0
      ],
      "name": "31381c6f6b5f4230b6e7e45f10506657.fbx"
    },
    {
      "children": [
        3,
        5
      ],
      "name": "RootNode"
    },
    {
      "children": [
        4
      ],
      "matrix": [
        0.4251639212618151,
        -0.14282636229132545,
        0.8937764095633225,
        0.0,
        0.06135345826987588,
        0.9897477609141595,
        0.12897721862303546,
        0.0,
        -0.9030345470775765,
        -1.863764693549319e-07,
        0.4295679303490445,
        0.0,
        -3.3465802669525146,
        2.5510220527648926,
        -9.290040016174316,
        1.0
      ],
      "name": "Active Camera"
    },
    {
      "name": "Object_4"
    },
    {
      "children": [
        6
      ],
      "name": "Default"
    },
    {
      "children": [
        7
      ],
      "matrix": [
        1.0,
        0.0,
        0.0,
        0.0,
        0.0,
        0.9993908270539953,
        0.03489949570310909,
        0.0,
        0.0,
        -0.03489949570310909,
        0.9993908270539953,
        0.0,
        0.0,
        -0.10000000149011612,
        -4.336808689942018e-19,
        1.0
      ],
      "name": "target_basilisk(Clone)"
    },
    {
      "children": [
        8
      ],
      "name": "RootNode"
    },
    {
      "children": [
        9
      ],
      "name": "target_basilisk_prefab"
    },
    {
      "children": [
        10
      ],
      "name": "target_basilisk(Clone)"
    },
    {
      "children": [
        11,
        16
      ],
      "name": "Geo"
    },
    {
      "children": [
        12
      ],
      "name": "target_basilisk_mesh"
    },
    {
      "children": [
        13
      ],
      "name": "target_basilisk_mesh_0"
    },
    {
      "children": [
        14
      ],
      "name": "target_basilisk_mesh_0"
    },
    {
      "children": [
        15
      ],
      "name": "target_basilisk_mesh_0"
    },
    {
      "mesh": 0,
      "name": "target_basilisk_mesh_0_target_basilisk_mat_0"
    },
    {
      "children": [
        17
      ],
      "name": "target_basiliskdbl_mesh"
    },
    {
      "children": [
        18
      ],
      "name": "target_basiliskdbl_mesh_0"
    },
    {
      "children": [
        19
      ],
      "name": "target_basiliskdbl_mesh_0"
    },
    {
      "children": [
        20
      ],
      "name": "target_basiliskdbl_mesh_0"
    },
    {
      "mesh": 1,
      "name": "target_basiliskdbl_mesh_0_target_basilisk_mat_0"
    }
  ],
  "samplers": [
    {
      "magFilter": 9729,
      "minFilter": 9987,
      "wrapS": 10497,
      "wrapT": 10497
    }
  ],
  "scene": 0,
  "scenes": [
    {
      "name": "Sketchfab_Scene",
      "nodes": [
        0
      ]
    }
  ],
  "textures": [
    {
      "sampler": 0,
      "source": 0
    }
  ]
}
